<svg width="70" height="37" viewBox="0 0 70 37" fill="none" xmlns="http://www.w3.org/2000/svg">
<path d="M66.006 25.0775C67.0785 24.5536 67.9895 24.001 68.6897 23.4145C68.0194 24.9377 66.7737 26.3343 64.9721 27.6091C62.1235 29.6247 57.9378 31.2932 52.6333 32.6175C42.0307 35.2644 27.1118 36.5 9.90607 36.5C8.01544 36.5 6.51682 36.4851 5.37146 36.4552C7.50695 36.1292 10.6783 35.7251 14.4945 35.2388C18.1769 34.7695 22.4597 34.2238 26.9917 33.5979C36.6291 32.2669 47.364 30.5767 55.695 28.5025C59.8567 27.4663 63.4467 26.3276 66.006 25.0775ZM64.5626 13.0065C66.5397 14.5544 67.9107 16.1679 68.6443 17.8164C67.9308 17.2047 67.0035 16.6155 65.9104 16.0458C63.286 14.6782 59.6011 13.3705 55.3232 12.1325C46.7604 9.65443 35.7149 7.42569 25.7674 5.55718C22.8295 5.00533 19.9895 4.48525 17.337 3.99951C10.9893 2.83708 5.71552 1.8713 2.74363 1.13745C2.11228 0.981551 1.60119 0.839859 1.21269 0.713485C1.54303 0.672092 1.9578 0.635907 2.46405 0.605734C3.63236 0.536102 5.26084 0.5 7.40973 0.5C24.592 0.5 40.1269 2.80702 51.349 6.52323C56.9627 8.38222 61.4696 10.5848 64.5626 13.0065ZM0.413951 0.374721C0.4141 0.374704 0.415875 0.376155 0.418825 0.379125C0.415276 0.376222 0.413801 0.374737 0.413951 0.374721ZM0.369532 0.892411C0.367961 0.893442 0.367092 0.893928 0.367051 0.893913C0.367009 0.893898 0.367795 0.893383 0.369532 0.892411Z" stroke="white"/>
</svg>
